<svg id="SvgjsSvg1006" width="770.0000305175781" height="1175.999984741211" xmlns="http://www.w3.org/2000/svg" version="1.1" xmlns:xlink="http://www.w3.org/1999/xlink" xmlns:svgjs="http://svgjs.com/svgjs"><defs id="SvgjsDefs1007"><pattern patternUnits="userSpaceOnUse" id="pattern_mark_0" width="300" height="300"><text x="150" y="100" fill="rgba(229,229,229,0.8)" font-size="18" transform="rotate(-45, 150, 150)" style="dominant-baseline: middle; text-anchor: middle;"></text></pattern><pattern patternUnits="userSpaceOnUse" id="pattern_mark_1" width="300" height="300"><text x="150" y="200" fill="rgba(229,229,229,0.8)" font-size="18" transform="rotate(-45, 150, 150)" style="dominant-baseline: middle; text-anchor: middle;"></text></pattern><marker id="SvgjsMarker1385" markerWidth="12" markerHeight="8" refX="9" refY="4" viewBox="0 0 12 8" orient="auto" markerUnits="userSpaceOnUse" stroke-dasharray="0,0"><path id="SvgjsPath1386" d="M0,0 L12,4 L0,8 L0,0" fill="#9999ff" stroke="#9999ff" stroke-width="1"></path></marker></defs><rect id="svgbackgroundid" width="770.0000305175781" height="1175.999984741211" fill="#ffffff"></rect><rect id="SvgjsRect1009" width="770.0000305175781" height="1175.999984741211" fill="url(#pattern_mark_0)"></rect><rect id="SvgjsRect1010" width="770.0000305175781" height="1175.999984741211" fill="url(#pattern_mark_1)"></rect><g id="SvgjsG1011" transform="translate(135.99998474121094,209.99999237060547)"><path id="SvgjsPath1012" d="M 0 4.24Q 0 0 5.8100000000000005 0L 575.1899999999999 0Q 581 0 581 4.24L 581 48.760000000000005Q 581 53 575.1899999999999 53L 5.8100000000000005 53Q 0 53 0 48.760000000000005L 0 4.24" stroke="none" fill-opacity="1" fill="#ffcc99"></path><g id="SvgjsG1013"><text id="SvgjsText1014" font-family="" text-anchor="start" font-size="12px" width="564px" fill="#000000" font-weight="400" align="middle" lineHeight="125%" anchor="start" family="" size="12px" weight="400" font-style="" opacity="1" y="16.5" transform="rotate(0)"><tspan id="SvgjsTspan1015" dy="15" x="10"><tspan id="SvgjsTspan1016" style="nullfont-size:12px; font-family:0; fill:#000000; letter-spacing:0px;">Spring Gateway</tspan></tspan></text></g></g><g id="SvgjsG1017" transform="translate(135.99998474121094,908.9999923706055)"><path id="SvgjsPath1018" d="M 0 4.5200000000000005Q 0 0 5.54 0L 548.46 0Q 554 0 554 4.5200000000000005L 554 108.47999999999999Q 554 113 548.46 113L 5.54 113Q 0 113 0 108.47999999999999L 0 4.5200000000000005" stroke="none" fill-opacity="1" fill="#9999ff"></path><g id="SvgjsG1019"><text id="SvgjsText1020" font-family="" text-anchor="start" font-size="12px" width="532px" fill="#000000" font-weight="400" align="middle" lineHeight="125%" anchor="start" family="" size="12px" weight="400" font-style="" opacity="1" y="46.5" transform="rotate(0)"><tspan id="SvgjsTspan1021" dy="15" x="10"><tspan id="SvgjsTspan1022" style="nullfont-size:12px; font-family:0; fill:#000000; letter-spacing:0px;">Mysql8.0</tspan></tspan></text></g></g><g id="SvgjsG1023" transform="translate(24.999984741210938,180.99999237060547)"><path id="SvgjsPath1024" d="M 0 NaNL 691 NaN" stroke-dasharray="10,6" stroke="rgba(136,136,136,1)" stroke-width="1" fill="none"></path><g id="SvgjsG1025"><text id="SvgjsText1026" font-family="Calibri" text-anchor="middle" font-size="17px" width="671px" fill="#000000" font-weight="400" align="middle" lineHeight="125%" anchor="middle" family="Calibri" size="17px" weight="400" font-style="" opacity="1" y="-4.125" transform="rotate(0)"></text></g></g><g id="SvgjsG1027" transform="translate(24.999984741210938,180.99999237060547)"><path id="SvgjsPath1028" d="M 0 0L 691 0L 691 21L 0 21L 0 0" stroke="none" fill="none"></path><g id="SvgjsG1029"><text id="SvgjsText1030" font-family="Calibri" text-anchor="middle" font-size="17px" width="671px" fill="#000000" font-weight="400" align="middle" lineHeight="125%" anchor="middle" family="Calibri" size="17px" weight="400" font-style="" opacity="1" y="-4.125" transform="rotate(0)"></text></g></g><g id="SvgjsG1031" transform="translate(140.99998474121094,1049.9999923706055)"><path id="SvgjsPath1032" d="M 0 3.95Q 0 0 5.54 0L 548.46 0Q 554 0 554 3.95L 554 75.05Q 554 79 548.46 79L 5.54 79Q 0 79 0 75.05L 0 3.95" stroke="none" fill-opacity="1" fill="#99ccff"></path><g id="SvgjsG1033"><text id="SvgjsText1034" font-family="Calibri" text-anchor="middle" font-size="17px" width="534px" fill="#000000" font-weight="400" align="middle" lineHeight="125%" anchor="middle" family="Calibri" size="17px" weight="400" font-style="" opacity="1" y="24.875" transform="rotate(0)"></text></g></g><g id="SvgjsG1035" transform="translate(44.99998474121094,1067.9999923706055)"><path id="SvgjsPath1036" d="M 0 0L 95 0L 95 44L 0 44L 0 0" stroke="none" fill="none"></path><g id="SvgjsG1037"><text id="SvgjsText1038" font-family="" text-anchor="middle" font-size="12px" width="95px" fill="#000000" font-weight="400" align="middle" lineHeight="125%" anchor="middle" family="" size="12px" weight="400" font-style="" opacity="1" y="12" transform="rotate(0)"><tspan id="SvgjsTspan1039" dy="15" x="47.5"><tspan id="SvgjsTspan1040" style="nullfont-size:12px; font-family:0; fill:#000000; letter-spacing:0px;">运行环境</tspan></tspan></text></g></g><g id="SvgjsG1041" transform="translate(222.99998474121094,1074.9999923706055)"><path id="SvgjsPath1042" d="M 0 0L 119 0L 119 31L 0 31L 0 0" stroke="rgba(0,0,0,1)" stroke-width="1" fill-opacity="1" fill="#ffffff"></path><g id="SvgjsG1043"><text id="SvgjsText1044" font-family="" text-anchor="middle" font-size="12px" width="99px" fill="#000000" font-weight="400" align="middle" lineHeight="125%" anchor="middle" family="" size="12px" weight="400" font-style="" opacity="1" y="5.5" transform="rotate(0)"><tspan id="SvgjsTspan1045" dy="15" x="59.5"><tspan id="SvgjsTspan1046" style="nullfont-size:12px; font-family:0; fill:#000000; letter-spacing:0px;">阿里云主机</tspan></tspan></text></g></g><g id="SvgjsG1047" transform="translate(514.9999847412109,1074.9999923706055)"><path id="SvgjsPath1048" d="M 0 0L 119 0L 119 31L 0 31L 0 0" stroke="rgba(0,0,0,1)" stroke-width="1" fill-opacity="1" fill="#ffffff"></path><g id="SvgjsG1049"><text id="SvgjsText1050" font-family="" text-anchor="middle" font-size="12px" width="99px" fill="#000000" font-weight="400" align="middle" lineHeight="125%" anchor="middle" family="" size="12px" weight="400" font-style="" opacity="1" y="5.5" transform="rotate(0)"><tspan id="SvgjsTspan1051" dy="15" x="59.5"><tspan id="SvgjsTspan1052" style="nullfont-size:12px; font-family:0; fill:#000000; letter-spacing:0px;">第三方虚拟主机</tspan></tspan></text></g></g><g id="SvgjsG1053" transform="translate(366.99998474121094,1074.9999923706055)"><path id="SvgjsPath1054" d="M 0 0L 119 0L 119 31L 0 31L 0 0" stroke="rgba(0,0,0,1)" stroke-width="1" fill-opacity="1" fill="#ffffff"></path><g id="SvgjsG1055"><text id="SvgjsText1056" font-family="" text-anchor="middle" font-size="12px" width="99px" fill="#000000" font-weight="400" align="middle" lineHeight="125%" anchor="middle" family="" size="12px" weight="400" font-style="" opacity="1" y="5.5" transform="rotate(0)"><tspan id="SvgjsTspan1057" dy="15" x="59.5"><tspan id="SvgjsTspan1058" style="nullfont-size:12px; font-family:0; fill:#000000; letter-spacing:0px;">独立服务器</tspan></tspan></text></g></g><g id="SvgjsG1059" transform="translate(24.999984741210938,314.99999237060547)"><path id="SvgjsPath1060" d="M 0 0L 95 0L 95 53L 0 53L 0 0" stroke="none" fill="none"></path><g id="SvgjsG1061"><text id="SvgjsText1062" font-family="" text-anchor="middle" font-size="12px" width="95px" fill="#000000" font-weight="400" align="middle" lineHeight="125%" anchor="middle" family="" size="12px" weight="400" font-style="" opacity="1" y="1.5" transform="rotate(0)"><tspan id="SvgjsTspan1063" dy="15" x="47.5"><tspan id="SvgjsTspan1064" style="nullfont-size:12px; font-family:0; fill:#000000; letter-spacing:0px;">高可用/集群</tspan></tspan><tspan id="SvgjsTspan1065" dy="15" x="47.5"><tspan id="SvgjsTspan1066" style=""> </tspan></tspan><tspan id="SvgjsTspan1067" dy="15" x="47.5"><tspan id="SvgjsTspan1068" style=""> </tspan></tspan></text></g></g><g id="SvgjsG1069" transform="translate(39.99998474121094,1129.9999923706055)"><path id="SvgjsPath1070" d="M 0 NaNL 691 NaN" stroke-dasharray="10,6" stroke="rgba(136,136,136,1)" stroke-width="1" fill="none"></path><g id="SvgjsG1071"><text id="SvgjsText1072" font-family="Calibri" text-anchor="middle" font-size="17px" width="671px" fill="#000000" font-weight="400" align="middle" lineHeight="125%" anchor="middle" family="Calibri" size="17px" weight="400" font-style="" opacity="1" y="-4.125" transform="rotate(0)"></text></g></g><g id="SvgjsG1073" transform="translate(39.99998474121094,1129.9999923706055)"><path id="SvgjsPath1074" d="M 0 0L 691 0L 691 21L 0 21L 0 0" stroke="none" fill="none"></path><g id="SvgjsG1075"><text id="SvgjsText1076" font-family="Calibri" text-anchor="middle" font-size="17px" width="671px" fill="#000000" font-weight="400" align="middle" lineHeight="125%" anchor="middle" family="Calibri" size="17px" weight="400" font-style="" opacity="1" y="-4.125" transform="rotate(0)"></text></g></g><g id="SvgjsG1077" transform="translate(24.999984741210938,268.99999237060547)"><path id="SvgjsPath1078" d="M 0 NaNL 691 NaN" stroke-dasharray="10,6" stroke="rgba(136,136,136,1)" stroke-width="1" fill="none"></path><g id="SvgjsG1079"><text id="SvgjsText1080" font-family="Calibri" text-anchor="middle" font-size="17px" width="671px" fill="#000000" font-weight="400" align="middle" lineHeight="125%" anchor="middle" family="Calibri" size="17px" weight="400" font-style="" opacity="1" y="-4.125" transform="rotate(0)"></text></g></g><g id="SvgjsG1081" transform="translate(24.999984741210938,268.99999237060547)"><path id="SvgjsPath1082" d="M 0 0L 691 0L 691 21L 0 21L 0 0" stroke="none" fill="none"></path><g id="SvgjsG1083"><text id="SvgjsText1084" font-family="Calibri" text-anchor="middle" font-size="17px" width="671px" fill="#000000" font-weight="400" align="middle" lineHeight="125%" anchor="middle" family="Calibri" size="17px" weight="400" font-style="" opacity="1" y="-4.125" transform="rotate(0)"></text></g></g><g id="SvgjsG1085" transform="translate(24.999984741210938,213.99999237060547)"><path id="SvgjsPath1086" d="M 0 0L 95 0L 95 44L 0 44L 0 0" stroke="none" fill="none"></path><g id="SvgjsG1087"><text id="SvgjsText1088" font-family="" text-anchor="middle" font-size="12px" width="95px" fill="#000000" font-weight="400" align="middle" lineHeight="125%" anchor="middle" family="" size="12px" weight="400" font-style="" opacity="1" y="12" transform="rotate(0)"><tspan id="SvgjsTspan1089" dy="15" x="47.5"><tspan id="SvgjsTspan1090" style="nullfont-size:12px; font-family:0; fill:#000000; letter-spacing:0px;">网关</tspan></tspan></text></g></g><g id="SvgjsG1091" transform="translate(313.99998474121094,220.49999237060547)"><path id="SvgjsPath1092" d="M 0 0L 95 0L 95 31L 0 31L 0 0" stroke="rgba(0,0,0,1)" stroke-width="1" fill-opacity="1" fill="#ffffff"></path><g id="SvgjsG1093"><text id="SvgjsText1094" font-family="" text-anchor="middle" font-size="12px" width="76px" fill="#000000" font-weight="400" align="middle" lineHeight="125%" anchor="middle" family="" size="12px" weight="400" font-style="" opacity="1" y="5.5" transform="rotate(0)"><tspan id="SvgjsTspan1095" dy="15" x="48"><tspan id="SvgjsTspan1096" style="nullfont-size:12px; font-family:0; fill:#000000; letter-spacing:0px;">Oauth2鉴权</tspan></tspan></text></g></g><g id="SvgjsG1097" transform="translate(44.99998474121094,943.9999923706055)"><path id="SvgjsPath1098" d="M 0 0L 95 0L 95 44L 0 44L 0 0" stroke="none" fill="none"></path><g id="SvgjsG1099"><text id="SvgjsText1100" font-family="" text-anchor="middle" font-size="12px" width="95px" fill="#000000" font-weight="400" align="middle" lineHeight="125%" anchor="middle" family="" size="12px" weight="400" font-style="" opacity="1" y="12" transform="rotate(0)"><tspan id="SvgjsTspan1101" dy="15" x="47.5"><tspan id="SvgjsTspan1102" style="nullfont-size:12px; font-family:0; fill:#000000; letter-spacing:0px;">数据库</tspan></tspan></text></g></g><g id="SvgjsG1103" transform="matrix(-1.8369701987210297e-16,-1,1,-1.8369701987210297e-16,255.99998474121094,1011)"><path id="SvgjsPath1104" d="M 12.45 0L 73.87 0C 85.49000000000001 0 85.49000000000001 53 73.87 53L 12.45 53C -4.15 53 -4.15 0 12.45 0L 12.45 0M 73.87 0C 63.08 0 63.08 53 73.87 53C 63.08 53 63.08 0 73.87 0" stroke="rgba(0,0,0,1)" stroke-width="1" fill-opacity="1" fill="#ffffff"></path><g id="SvgjsG1105"><text id="SvgjsText1106" font-family="" text-anchor="middle" font-size="12px" width="67px" fill="#000000" font-weight="400" align="middle" lineHeight="125%" anchor="middle" family="" size="12px" weight="400" font-style="" opacity="1" y="16.5" transform="rotate(0)"><tspan id="SvgjsTspan1107" dy="15" x="33.5"><tspan id="SvgjsTspan1108" style="nullfont-size:12px; font-family:0; fill:#000000; letter-spacing:0px;">主</tspan></tspan></text></g></g><g id="SvgjsG1109" transform="translate(39.99998474121094,1026.9999923706055)"><path id="SvgjsPath1110" d="M 0 NaNL 691 NaN" stroke-dasharray="10,6" stroke="rgba(136,136,136,1)" stroke-width="1" fill="none"></path><g id="SvgjsG1111"><text id="SvgjsText1112" font-family="Calibri" text-anchor="middle" font-size="17px" width="671px" fill="#000000" font-weight="400" align="middle" lineHeight="125%" anchor="middle" family="Calibri" size="17px" weight="400" font-style="" opacity="1" y="-4.125" transform="rotate(0)"></text></g></g><g id="SvgjsG1113" transform="translate(39.99998474121094,1026.9999923706055)"><path id="SvgjsPath1114" d="M 0 0L 691 0L 691 21L 0 21L 0 0" stroke="none" fill="none"></path><g id="SvgjsG1115"><text id="SvgjsText1116" font-family="Calibri" text-anchor="middle" font-size="17px" width="671px" fill="#000000" font-weight="400" align="middle" lineHeight="125%" anchor="middle" family="Calibri" size="17px" weight="400" font-style="" opacity="1" y="-4.125" transform="rotate(0)"></text></g></g><g id="SvgjsG1117" transform="matrix(-1.8369701987210297e-16,-1,1,-1.8369701987210297e-16,391,1011)"><path id="SvgjsPath1118" d="M 12.45 0L 73.87 0C 85.49000000000001 0 85.49000000000001 53 73.87 53L 12.45 53C -4.15 53 -4.15 0 12.45 0L 12.45 0M 73.87 0C 63.08 0 63.08 53 73.87 53C 63.08 53 63.08 0 73.87 0" stroke="rgba(0,0,0,1)" stroke-width="1" fill-opacity="1" fill="#cfcfcf"></path><g id="SvgjsG1119"><text id="SvgjsText1120" font-family="" text-anchor="middle" font-size="12px" width="67px" fill="#000000" font-weight="400" align="middle" lineHeight="125%" anchor="middle" family="" size="12px" weight="400" font-style="" opacity="1" y="16.5" transform="rotate(0)"><tspan id="SvgjsTspan1121" dy="15" x="33.5"><tspan id="SvgjsTspan1122" style="nullfont-size:12px; font-family:0; fill:#000000; letter-spacing:0px;">从</tspan></tspan></text></g></g><g id="SvgjsG1123" transform="translate(30.999984741210938,70.99999237060547)"><path id="SvgjsPath1124" d="M 0 NaNL 691 NaN" stroke-dasharray="10,6" stroke="rgba(136,136,136,1)" stroke-width="1" fill="none"></path><g id="SvgjsG1125"><text id="SvgjsText1126" font-family="Calibri" text-anchor="middle" font-size="17px" width="671px" fill="#000000" font-weight="400" align="middle" lineHeight="125%" anchor="middle" family="Calibri" size="17px" weight="400" font-style="" opacity="1" y="-4.125" transform="rotate(0)"></text></g></g><g id="SvgjsG1127" transform="translate(30.999984741210938,70.99999237060547)"><path id="SvgjsPath1128" d="M 0 0L 691 0L 691 21L 0 21L 0 0" stroke="none" fill="none"></path><g id="SvgjsG1129"><text id="SvgjsText1130" font-family="Calibri" text-anchor="middle" font-size="17px" width="671px" fill="#000000" font-weight="400" align="middle" lineHeight="125%" anchor="middle" family="Calibri" size="17px" weight="400" font-style="" opacity="1" y="-4.125" transform="rotate(0)"></text></g></g><g id="SvgjsG1131" transform="translate(146.99998474121094,24.99999237060547)"><path id="SvgjsPath1132" d="M 0 4.24Q 0 0 5.54 0L 548.46 0Q 554 0 554 4.24L 554 48.760000000000005Q 554 53 548.46 53L 5.54 53Q 0 53 0 48.760000000000005L 0 4.24" stroke="none" fill-opacity="1" fill="#66ffb3"></path><g id="SvgjsG1133"><text id="SvgjsText1134" font-family="Calibri" text-anchor="middle" font-size="17px" width="534px" fill="#000000" font-weight="400" align="middle" lineHeight="125%" anchor="middle" family="Calibri" size="17px" weight="400" font-style="" opacity="1" y="11.875" transform="rotate(0)"></text></g></g><g id="SvgjsG1135" transform="translate(30.999984741210938,28.99999237060547)"><path id="SvgjsPath1136" d="M 0 0L 95 0L 95 44L 0 44L 0 0" stroke="none" fill="none"></path><g id="SvgjsG1137"><text id="SvgjsText1138" font-family="" text-anchor="middle" font-size="12px" width="95px" fill="#000000" font-weight="400" align="middle" lineHeight="125%" anchor="middle" family="" size="12px" weight="400" font-style="" opacity="1" y="12" transform="rotate(0)"><tspan id="SvgjsTspan1139" dy="15" x="47.5"><tspan id="SvgjsTspan1140" style="nullfont-size:12px; font-family:0; fill:#000000; letter-spacing:0px;">前端UI</tspan></tspan></text></g></g><g id="SvgjsG1141" transform="translate(322.99998474121094,32.99999237060547)"><path id="SvgjsPath1142" d="M 0 0L 174 0L 174 37L 0 37L 0 0" stroke="rgba(0,0,0,1)" stroke-width="1" fill-opacity="1" fill="#ffffff"></path><g id="SvgjsG1143"><text id="SvgjsText1144" font-family="" text-anchor="middle" font-size="12px" width="154px" fill="#000000" font-weight="400" align="middle" lineHeight="125%" anchor="middle" family="" size="12px" weight="400" font-style="" opacity="1" y="8.5" transform="rotate(0)"><tspan id="SvgjsTspan1145" dy="15" x="87"><tspan id="SvgjsTspan1146" style="null">IOS移动端</tspan></tspan></text></g></g><g id="SvgjsG1147" transform="translate(201.99998474121094,32.99999237060547)"><path id="SvgjsPath1148" d="M 0 0L 112 0L 112 37L 0 37L 0 0" stroke="rgba(0,0,0,1)" stroke-width="1" fill-opacity="1" fill="#ffffff"></path><g id="SvgjsG1149"><text id="SvgjsText1150" font-family="" text-anchor="middle" font-size="12px" width="92px" fill="#000000" font-weight="400" align="middle" lineHeight="125%" anchor="middle" family="" size="12px" weight="400" font-style="" opacity="1" y="8.5" transform="rotate(0)"><tspan id="SvgjsTspan1151" dy="15" x="56"><tspan id="SvgjsTspan1152" style="nullfont-size:12px; font-family:0; fill:#000000; letter-spacing:0px;">Android移动端</tspan></tspan></text></g></g><g id="SvgjsG1153" transform="translate(529.9999847412109,32.99999237060547)"><path id="SvgjsPath1154" d="M 0 0L 145 0L 145 37L 0 37L 0 0" stroke="rgba(0,0,0,1)" stroke-width="1" fill-opacity="1" fill="#ffffff"></path><g id="SvgjsG1155"><text id="SvgjsText1156" font-family="" text-anchor="middle" font-size="12px" width="125px" fill="#000000" font-weight="400" align="middle" lineHeight="125%" anchor="middle" family="" size="12px" weight="400" font-style="" opacity="1" y="8.5" transform="rotate(0)"><tspan id="SvgjsTspan1157" dy="15" x="72.5"><tspan id="SvgjsTspan1158" style="nullfont-size:12px; font-family:0; fill:#000000; letter-spacing:0px;">Element VUE后台</tspan></tspan></text></g></g><g id="SvgjsG1159" transform="translate(30.999984741210938,107.99999237060547)"><path id="SvgjsPath1160" d="M 0 0L 95 0L 95 44L 0 44L 0 0" stroke="none" fill="none"></path><g id="SvgjsG1161"><text id="SvgjsText1162" font-family="" text-anchor="middle" font-size="12px" width="95px" fill="#000000" font-weight="400" align="middle" lineHeight="125%" anchor="middle" family="" size="12px" weight="400" font-style="" opacity="1" y="12" transform="rotate(0)"><tspan id="SvgjsTspan1163" dy="15" x="47.5"><tspan id="SvgjsTspan1164" style="nullfont-size:12px; font-family:0; fill:#000000; letter-spacing:0px;">服务器</tspan></tspan></text></g></g><g id="SvgjsG1165" transform="translate(137.99998474121094,107.99999237060547)"><path id="SvgjsPath1166" d="M 0 3.96Q 0 0 4.78 0L 234.22 0Q 239 0 239 3.96L 239 40.04Q 239 44 234.22 44L 4.78 44Q 0 44 0 40.04L 0 3.96" stroke="none" fill-opacity="1" fill="#ffcc99"></path><g id="SvgjsG1167"><text id="SvgjsText1168" font-family="" text-anchor="start" font-size="12px" width="220px" fill="#000000" font-weight="400" align="middle" lineHeight="125%" anchor="start" family="" size="12px" weight="400" font-style="" opacity="1" y="12" transform="rotate(0)"><tspan id="SvgjsTspan1169" dy="15" x="10"><tspan id="SvgjsTspan1170" style="nullfont-size:12px; font-family:0; fill:#000000; letter-spacing:0px;">tengine</tspan></tspan></text></g></g><g id="SvgjsG1171" transform="translate(135.99998474121094,294.99999237060547)"><path id="SvgjsPath1172" d="M 0 4.0600000000000005Q 0 0 2.94 0L 291.06 0Q 294 0 294 4.0600000000000005L 294 53.940000000000005Q 294 58 291.06 58L 2.94 58Q 0 58 0 53.940000000000005L 0 4.0600000000000005" stroke="none" fill-opacity="1" fill="#ffcc99"></path><g id="SvgjsG1173"><text id="SvgjsText1174" font-family="" text-anchor="start" font-size="12px" width="274px" fill="#000000" font-weight="400" align="middle" lineHeight="125%" anchor="start" family="" size="12px" weight="400" font-style="" opacity="1" y="19" transform="rotate(0)"><tspan id="SvgjsTspan1175" dy="15" x="10"><tspan id="SvgjsTspan1176" style="nullfont-size:12px; font-family:0; fill:#000000; letter-spacing:0px;">Sentinel</tspan></tspan></text></g></g><g id="SvgjsG1177" transform="translate(322.99998474121094,308.99999237060547)"><path id="SvgjsPath1178" d="M 0 0L 95 0L 95 31L 0 31L 0 0" stroke="rgba(0,0,0,1)" stroke-width="1" fill-opacity="1" fill="#ffffff"></path><g id="SvgjsG1179"><text id="SvgjsText1180" font-family="" text-anchor="middle" font-size="12px" width="76px" fill="#000000" font-weight="400" align="middle" lineHeight="125%" anchor="middle" family="" size="12px" weight="400" font-style="" opacity="1" y="5.5" transform="rotate(0)"><tspan id="SvgjsTspan1181" dy="15" x="48"><tspan id="SvgjsTspan1182" style="nullfont-size:12px; font-family:0; fill:#000000; letter-spacing:0px;">监控</tspan></tspan></text></g></g><g id="SvgjsG1183" transform="translate(203.99998474121094,308.99999237060547)"><path id="SvgjsPath1184" d="M 0 0L 95 0L 95 31L 0 31L 0 0" stroke="rgba(0,0,0,1)" stroke-width="1" fill-opacity="1" fill="#ffffff"></path><g id="SvgjsG1185"><text id="SvgjsText1186" font-family="" text-anchor="middle" font-size="12px" width="76px" fill="#000000" font-weight="400" align="middle" lineHeight="125%" anchor="middle" family="" size="12px" weight="400" font-style="" opacity="1" y="5.5" transform="rotate(0)"><tspan id="SvgjsTspan1187" dy="15" x="48"><tspan id="SvgjsTspan1188" style="nullfont-size:12px; font-family:0; fill:#000000; letter-spacing:0px;">熔断限流</tspan></tspan></text></g></g><g id="SvgjsG1189" transform="translate(450.99998474121094,294.99999237060547)"><path id="SvgjsPath1190" d="M 0 4.0600000000000005Q 0 0 2.94 0L 291.06 0Q 294 0 294 4.0600000000000005L 294 53.940000000000005Q 294 58 291.06 58L 2.94 58Q 0 58 0 53.940000000000005L 0 4.0600000000000005" stroke="none" fill-opacity="1" fill="#ffcc99"></path><g id="SvgjsG1191"><text id="SvgjsText1192" font-family="" text-anchor="start" font-size="12px" width="274px" fill="#000000" font-weight="400" align="middle" lineHeight="125%" anchor="start" family="" size="12px" weight="400" font-style="" opacity="1" y="19" transform="rotate(0)"><tspan id="SvgjsTspan1193" dy="15" x="10"><tspan id="SvgjsTspan1194" style="nullfont-size:12px; font-family:0; fill:#000000; letter-spacing:0px;">skywalking</tspan></tspan></text></g></g><g id="SvgjsG1195" transform="translate(529.9999847412109,308.99999237060547)"><path id="SvgjsPath1196" d="M 0 0L 135 0L 135 31L 0 31L 0 0" stroke="rgba(0,0,0,1)" stroke-width="1" fill-opacity="1" fill="#ffffff"></path><g id="SvgjsG1197"><text id="SvgjsText1198" font-family="" text-anchor="middle" font-size="12px" width="115px" fill="#000000" font-weight="400" align="middle" lineHeight="125%" anchor="middle" family="" size="12px" weight="400" font-style="" opacity="1" y="5.5" transform="rotate(0)"><tspan id="SvgjsTspan1199" dy="15" x="67.5"><tspan id="SvgjsTspan1200" style="nullfont-size:12px; font-family:0; fill:#000000; letter-spacing:0px;">分布式链路追踪</tspan></tspan></text></g></g><g id="SvgjsG1201" transform="translate(228.99998474121094,114.99999237060547)"><path id="SvgjsPath1202" d="M 0 0L 119 0L 119 31L 0 31L 0 0" stroke="rgba(0,0,0,1)" stroke-width="1" fill-opacity="1" fill="#ffffff"></path><g id="SvgjsG1203"><text id="SvgjsText1204" font-family="" text-anchor="middle" font-size="12px" width="99px" fill="#000000" font-weight="400" align="middle" lineHeight="125%" anchor="middle" family="" size="12px" weight="400" font-style="" opacity="1" y="5.5" transform="rotate(0)"><tspan id="SvgjsTspan1205" dy="15" x="59.5"><tspan id="SvgjsTspan1206" style="nullfont-size:12px; font-family:0; fill:#000000; letter-spacing:0px;">Nginx负载均衡</tspan></tspan></text></g></g><g id="SvgjsG1207" transform="translate(135.99998474121094,360.99999237060547)"><path id="SvgjsPath1208" d="M 0 4.0600000000000005Q 0 0 2.94 0L 291.06 0Q 294 0 294 4.0600000000000005L 294 53.940000000000005Q 294 58 291.06 58L 2.94 58Q 0 58 0 53.940000000000005L 0 4.0600000000000005" stroke="none" fill-opacity="1" fill="#ffcc99"></path><g id="SvgjsG1209"><text id="SvgjsText1210" font-family="" text-anchor="start" font-size="12px" width="274px" fill="#000000" font-weight="400" align="middle" lineHeight="125%" anchor="start" family="" size="12px" weight="400" font-style="" opacity="1" y="19" transform="rotate(0)"><tspan id="SvgjsTspan1211" dy="15" x="10"><tspan id="SvgjsTspan1212" style="nullfont-size:12px; font-family:0; fill:#000000; letter-spacing:0px;">nacos</tspan></tspan></text></g></g><g id="SvgjsG1213" transform="translate(322.99998474121094,374.99999237060547)"><path id="SvgjsPath1214" d="M 0 0L 95 0L 95 31L 0 31L 0 0" stroke="rgba(0,0,0,1)" stroke-width="1" fill-opacity="1" fill="#ffffff"></path><g id="SvgjsG1215"><text id="SvgjsText1216" font-family="" text-anchor="middle" font-size="12px" width="76px" fill="#000000" font-weight="400" align="middle" lineHeight="125%" anchor="middle" family="" size="12px" weight="400" font-style="" opacity="1" y="5.5" transform="rotate(0)"><tspan id="SvgjsTspan1217" dy="15" x="48"><tspan id="SvgjsTspan1218" style="nullfont-size:12px; font-family:0; fill:#000000; letter-spacing:0px;">注册与发现</tspan></tspan></text></g></g><g id="SvgjsG1219" transform="translate(203.99998474121094,374.99999237060547)"><path id="SvgjsPath1220" d="M 0 0L 95 0L 95 31L 0 31L 0 0" stroke="rgba(0,0,0,1)" stroke-width="1" fill-opacity="1" fill="#ffffff"></path><g id="SvgjsG1221"><text id="SvgjsText1222" font-family="" text-anchor="middle" font-size="12px" width="76px" fill="#000000" font-weight="400" align="middle" lineHeight="125%" anchor="middle" family="" size="12px" weight="400" font-style="" opacity="1" y="5.5" transform="rotate(0)"><tspan id="SvgjsTspan1223" dy="15" x="48"><tspan id="SvgjsTspan1224" style="nullfont-size:12px; font-family:0; fill:#000000; letter-spacing:0px;">统一配置</tspan></tspan></text></g></g><g id="SvgjsG1225" transform="translate(449.99998474121094,107.99999237060547)"><path id="SvgjsPath1226" d="M 0 3.96Q 0 0 4.78 0L 234.22 0Q 239 0 239 3.96L 239 40.04Q 239 44 234.22 44L 4.78 44Q 0 44 0 40.04L 0 3.96" stroke="none" fill-opacity="1" fill="#ffcc99"></path><g id="SvgjsG1227"><text id="SvgjsText1228" font-family="" text-anchor="start" font-size="12px" width="220px" fill="#000000" font-weight="400" align="middle" lineHeight="125%" anchor="start" family="" size="12px" weight="400" font-style="" opacity="1" y="12" transform="rotate(0)"><tspan id="SvgjsTspan1229" dy="15" x="10"><tspan id="SvgjsTspan1230" style="nullfont-size:12px; font-family:0; fill:#000000; letter-spacing:0px;">arthas阿尔萨斯</tspan></tspan></text></g></g><g id="SvgjsG1231" transform="translate(547.9999847412109,114.99999237060547)"><path id="SvgjsPath1232" d="M 0 0L 95 0L 95 31L 0 31L 0 0" stroke="rgba(0,0,0,1)" stroke-width="1" fill-opacity="1" fill="#ffffff"></path><g id="SvgjsG1233"><text id="SvgjsText1234" font-family="" text-anchor="middle" font-size="12px" width="76px" fill="#000000" font-weight="400" align="middle" lineHeight="125%" anchor="middle" family="" size="12px" weight="400" font-style="" opacity="1" y="5.5" transform="rotate(0)"><tspan id="SvgjsTspan1235" dy="15" x="48"><tspan id="SvgjsTspan1236" style="nullfont-size:12px; font-family:0; fill:#000000; letter-spacing:0px;">诊断工具</tspan></tspan></text></g></g><g id="SvgjsG1237" transform="translate(450.99998474121094,360.99999237060547)"><path id="SvgjsPath1238" d="M 0 4.0600000000000005Q 0 0 2.94 0L 291.06 0Q 294 0 294 4.0600000000000005L 294 53.940000000000005Q 294 58 291.06 58L 2.94 58Q 0 58 0 53.940000000000005L 0 4.0600000000000005" stroke="none" fill-opacity="1" fill="#ffcc99"></path><g id="SvgjsG1239"><text id="SvgjsText1240" font-family="" text-anchor="start" font-size="12px" width="274px" fill="#000000" font-weight="400" align="middle" lineHeight="125%" anchor="start" family="" size="12px" weight="400" font-style="" opacity="1" y="19" transform="rotate(0)"><tspan id="SvgjsTspan1241" dy="15" x="10"><tspan id="SvgjsTspan1242" style="nullfont-size:12px; font-family:0; fill:#000000; letter-spacing:0px;">Seata</tspan></tspan></text></g></g><g id="SvgjsG1243" transform="translate(526.9999847412109,374.99999237060547)"><path id="SvgjsPath1244" d="M 0 0L 95 0L 95 31L 0 31L 0 0" stroke="rgba(0,0,0,1)" stroke-width="1" fill-opacity="1" fill="#ffffff"></path><g id="SvgjsG1245"><text id="SvgjsText1246" font-family="" text-anchor="middle" font-size="12px" width="76px" fill="#000000" font-weight="400" align="middle" lineHeight="125%" anchor="middle" family="" size="12px" weight="400" font-style="" opacity="1" y="5.5" transform="rotate(0)"><tspan id="SvgjsTspan1247" dy="15" x="48"><tspan id="SvgjsTspan1248" style="nullfont-size:12px; font-family:0; fill:#000000; letter-spacing:0px;">分布式事务</tspan></tspan></text></g></g><g id="SvgjsG1249" transform="translate(135.99998474121094,440.99999237060547)"><path id="SvgjsPath1250" d="M 0 4.0600000000000005Q 0 0 2.94 0L 291.06 0Q 294 0 294 4.0600000000000005L 294 53.940000000000005Q 294 58 291.06 58L 2.94 58Q 0 58 0 53.940000000000005L 0 4.0600000000000005" stroke="none" fill-opacity="1" fill="#ffcc99"></path><g id="SvgjsG1251"><text id="SvgjsText1252" font-family="" text-anchor="start" font-size="12px" width="274px" fill="#000000" font-weight="400" align="middle" lineHeight="125%" anchor="start" family="" size="12px" weight="400" font-style="" opacity="1" y="19" transform="rotate(0)"><tspan id="SvgjsTspan1253" dy="15" x="10"><tspan id="SvgjsTspan1254" style="nullfont-size:12px; font-family:0; fill:#000000; letter-spacing:0px;">swagger3</tspan></tspan></text></g></g><g id="SvgjsG1255" transform="translate(222.99998474121094,454.99999237060547)"><path id="SvgjsPath1256" d="M 0 0L 119 0L 119 31L 0 31L 0 0" stroke="rgba(0,0,0,1)" stroke-width="1" fill-opacity="1" fill="#ffffff"></path><g id="SvgjsG1257"><text id="SvgjsText1258" font-family="" text-anchor="middle" font-size="12px" width="99px" fill="#000000" font-weight="400" align="middle" lineHeight="125%" anchor="middle" family="" size="12px" weight="400" font-style="" opacity="1" y="5.5" transform="rotate(0)"><tspan id="SvgjsTspan1259" dy="15" x="59.5"><tspan id="SvgjsTspan1260" style="nullfont-size:12px; font-family:0; fill:#000000; letter-spacing:0px;">在线接口说明</tspan></tspan></text></g></g><g id="SvgjsG1261" transform="translate(135.99998474121094,523.9999923706055)"><path id="SvgjsPath1262" d="M 0 4.0600000000000005Q 0 0 2.94 0L 291.06 0Q 294 0 294 4.0600000000000005L 294 53.940000000000005Q 294 58 291.06 58L 2.94 58Q 0 58 0 53.940000000000005L 0 4.0600000000000005" stroke="none" fill-opacity="1" fill="#ffcc99"></path><g id="SvgjsG1263"><text id="SvgjsText1264" font-family="" text-anchor="start" font-size="12px" width="274px" fill="#000000" font-weight="400" align="middle" lineHeight="125%" anchor="start" family="" size="12px" weight="400" font-style="" opacity="1" y="19" transform="rotate(0)"><tspan id="SvgjsTspan1265" dy="15" x="10"><tspan id="SvgjsTspan1266" style="nullfont-size:12px; font-family:0; fill:#000000; letter-spacing:0px;">Mongo</tspan></tspan></text></g></g><g id="SvgjsG1267" transform="translate(222.99998474121094,537.9999923706055)"><path id="SvgjsPath1268" d="M 0 0L 119 0L 119 31L 0 31L 0 0" stroke="rgba(0,0,0,1)" stroke-width="1" fill-opacity="1" fill="#ffffff"></path><g id="SvgjsG1269"><text id="SvgjsText1270" font-family="" text-anchor="middle" font-size="12px" width="99px" fill="#000000" font-weight="400" align="middle" lineHeight="125%" anchor="middle" family="" size="12px" weight="400" font-style="" opacity="1" y="5.5" transform="rotate(0)"><tspan id="SvgjsTspan1271" dy="15" x="59.5"><tspan id="SvgjsTspan1272" style="nullfont-size:12px; font-family:0; fill:#000000; letter-spacing:0px;">大数据分析</tspan></tspan></text></g></g><g id="SvgjsG1273" transform="translate(135.99998474121094,598.9999923706055)"><path id="SvgjsPath1274" d="M 0 4.0600000000000005Q 0 0 2.94 0L 291.06 0Q 294 0 294 4.0600000000000005L 294 53.940000000000005Q 294 58 291.06 58L 2.94 58Q 0 58 0 53.940000000000005L 0 4.0600000000000005" stroke="none" fill-opacity="1" fill="#ffcc99"></path><g id="SvgjsG1275"><text id="SvgjsText1276" font-family="" text-anchor="start" font-size="12px" width="274px" fill="#000000" font-weight="400" align="middle" lineHeight="125%" anchor="start" family="" size="12px" weight="400" font-style="" opacity="1" y="19" transform="rotate(0)"><tspan id="SvgjsTspan1277" dy="15" x="10"><tspan id="SvgjsTspan1278" style="nullfont-size:12px; font-family:0; fill:#000000; letter-spacing:0px;">EMQX</tspan></tspan></text></g></g><g id="SvgjsG1279" transform="translate(222.99998474121094,612.9999923706055)"><path id="SvgjsPath1280" d="M 0 0L 119 0L 119 31L 0 31L 0 0" stroke="rgba(0,0,0,1)" stroke-width="1" fill-opacity="1" fill="#ffffff"></path><g id="SvgjsG1281"><text id="SvgjsText1282" font-family="" text-anchor="middle" font-size="12px" width="99px" fill="#000000" font-weight="400" align="middle" lineHeight="125%" anchor="middle" family="" size="12px" weight="400" font-style="" opacity="1" y="5.5" transform="rotate(0)"><tspan id="SvgjsTspan1283" dy="15" x="59.5"><tspan id="SvgjsTspan1284" style="nullfont-size:12px; font-family:0; fill:#000000; letter-spacing:0px;">消息服务器</tspan></tspan></text></g></g><g id="SvgjsG1285" transform="translate(135.99998474121094,668.9999923706055)"><path id="SvgjsPath1286" d="M 0 4.0600000000000005Q 0 0 2.94 0L 291.06 0Q 294 0 294 4.0600000000000005L 294 53.940000000000005Q 294 58 291.06 58L 2.94 58Q 0 58 0 53.940000000000005L 0 4.0600000000000005" stroke="none" fill-opacity="1" fill="#ffcc99"></path><g id="SvgjsG1287"><text id="SvgjsText1288" font-family="" text-anchor="start" font-size="12px" width="274px" fill="#000000" font-weight="400" align="middle" lineHeight="125%" anchor="start" family="" size="12px" weight="400" font-style="" opacity="1" y="19" transform="rotate(0)"><tspan id="SvgjsTspan1289" dy="15" x="10"><tspan id="SvgjsTspan1290" style="nullfont-size:12px; font-family:0; fill:#000000; letter-spacing:0px;">ElasticSearch</tspan></tspan></text></g></g><g id="SvgjsG1291" transform="translate(222.99998474121094,682.9999923706055)"><path id="SvgjsPath1292" d="M 0 0L 119 0L 119 31L 0 31L 0 0" stroke="rgba(0,0,0,1)" stroke-width="1" fill-opacity="1" fill="#ffffff"></path><g id="SvgjsG1293"><text id="SvgjsText1294" font-family="" text-anchor="middle" font-size="12px" width="99px" fill="#000000" font-weight="400" align="middle" lineHeight="125%" anchor="middle" family="" size="12px" weight="400" font-style="" opacity="1" y="5.5" transform="rotate(0)"><tspan id="SvgjsTspan1295" dy="15" x="59.5"><tspan id="SvgjsTspan1296" style="nullfont-size:12px; font-family:0; fill:#000000; letter-spacing:0px;">搜索引擎</tspan></tspan></text></g></g><g id="SvgjsG1297" transform="translate(449.99998474121094,440.99999237060547)"><path id="SvgjsPath1298" d="M 0 4.0600000000000005Q 0 0 2.94 0L 291.06 0Q 294 0 294 4.0600000000000005L 294 53.940000000000005Q 294 58 291.06 58L 2.94 58Q 0 58 0 53.940000000000005L 0 4.0600000000000005" stroke="none" fill-opacity="1" fill="#ffcc99"></path><g id="SvgjsG1299"><text id="SvgjsText1300" font-family="" text-anchor="start" font-size="12px" width="274px" fill="#000000" font-weight="400" align="middle" lineHeight="125%" anchor="start" family="" size="12px" weight="400" font-style="" opacity="1" y="19" transform="rotate(0)"><tspan id="SvgjsTspan1301" dy="15" x="10"><tspan id="SvgjsTspan1302" style="nullfont-size:12px; font-family:0; fill:#000000; letter-spacing:0px;">Redis</tspan></tspan></text></g></g><g id="SvgjsG1303" transform="translate(536.9999847412109,454.99999237060547)"><path id="SvgjsPath1304" d="M 0 0L 119 0L 119 31L 0 31L 0 0" stroke="rgba(0,0,0,1)" stroke-width="1" fill-opacity="1" fill="#ffffff"></path><g id="SvgjsG1305"><text id="SvgjsText1306" font-family="" text-anchor="middle" font-size="12px" width="99px" fill="#000000" font-weight="400" align="middle" lineHeight="125%" anchor="middle" family="" size="12px" weight="400" font-style="" opacity="1" y="5.5" transform="rotate(0)"><tspan id="SvgjsTspan1307" dy="15" x="59.5"><tspan id="SvgjsTspan1308" style="nullfont-size:12px; font-family:0; fill:#000000; letter-spacing:0px;">缓存管理</tspan></tspan></text></g></g><g id="SvgjsG1309" transform="translate(449.99998474121094,523.9999923706055)"><path id="SvgjsPath1310" d="M 0 4.0600000000000005Q 0 0 2.94 0L 291.06 0Q 294 0 294 4.0600000000000005L 294 53.940000000000005Q 294 58 291.06 58L 2.94 58Q 0 58 0 53.940000000000005L 0 4.0600000000000005" stroke="none" fill-opacity="1" fill="#ffcc99"></path><g id="SvgjsG1311"><text id="SvgjsText1312" font-family="" text-anchor="start" font-size="12px" width="274px" fill="#000000" font-weight="400" align="middle" lineHeight="125%" anchor="start" family="" size="12px" weight="400" font-style="" opacity="1" y="19" transform="rotate(0)"><tspan id="SvgjsTspan1313" dy="15" x="10"><tspan id="SvgjsTspan1314" style="nullfont-size:12px; font-family:0; fill:#000000; letter-spacing:0px;">RocketMQ</tspan></tspan></text></g></g><g id="SvgjsG1315" transform="translate(536.9999847412109,537.9999923706055)"><path id="SvgjsPath1316" d="M 0 0L 119 0L 119 31L 0 31L 0 0" stroke="rgba(0,0,0,1)" stroke-width="1" fill-opacity="1" fill="#ffffff"></path><g id="SvgjsG1317"><text id="SvgjsText1318" font-family="" text-anchor="middle" font-size="12px" width="99px" fill="#000000" font-weight="400" align="middle" lineHeight="125%" anchor="middle" family="" size="12px" weight="400" font-style="" opacity="1" y="5.5" transform="rotate(0)"><tspan id="SvgjsTspan1319" dy="15" x="59.5"><tspan id="SvgjsTspan1320" style="nullfont-size:12px; font-family:0; fill:#000000; letter-spacing:0px;">消息队列</tspan></tspan></text></g></g><g id="SvgjsG1321" transform="translate(449.99998474121094,598.9999923706055)"><path id="SvgjsPath1322" d="M 0 4.0600000000000005Q 0 0 2.94 0L 291.06 0Q 294 0 294 4.0600000000000005L 294 53.940000000000005Q 294 58 291.06 58L 2.94 58Q 0 58 0 53.940000000000005L 0 4.0600000000000005" stroke="none" fill-opacity="1" fill="#ffcc99"></path><g id="SvgjsG1323"><text id="SvgjsText1324" font-family="" text-anchor="start" font-size="12px" width="274px" fill="#000000" font-weight="400" align="middle" lineHeight="125%" anchor="start" family="" size="12px" weight="400" font-style="" opacity="1" y="19" transform="rotate(0)"><tspan id="SvgjsTspan1325" dy="15" x="10"><tspan id="SvgjsTspan1326" style="nullfont-size:12px; font-family:0; fill:#000000; letter-spacing:0px;">shardingsphere</tspan></tspan></text></g></g><g id="SvgjsG1327" transform="translate(556.9999847412109,612.9999923706055)"><path id="SvgjsPath1328" d="M 0 0L 79 0L 79 31L 0 31L 0 0" stroke="rgba(0,0,0,1)" stroke-width="1" fill-opacity="1" fill="#ffffff"></path><g id="SvgjsG1329"><text id="SvgjsText1330" font-family="" text-anchor="middle" font-size="12px" width="60px" fill="#000000" font-weight="400" align="middle" lineHeight="125%" anchor="middle" family="" size="12px" weight="400" font-style="" opacity="1" y="5.5" transform="rotate(0)"><tspan id="SvgjsTspan1331" dy="15" x="40"><tspan id="SvgjsTspan1332" style="nullfont-size:12px; font-family:0; fill:#000000; letter-spacing:0px;">读写分离</tspan></tspan></text></g></g><g id="SvgjsG1333" transform="translate(449.99998474121094,668.9999923706055)"><path id="SvgjsPath1334" d="M 0 4.0600000000000005Q 0 0 2.94 0L 291.06 0Q 294 0 294 4.0600000000000005L 294 53.940000000000005Q 294 58 291.06 58L 2.94 58Q 0 58 0 53.940000000000005L 0 4.0600000000000005" stroke="none" fill-opacity="1" fill="#ffcc99"></path><g id="SvgjsG1335"><text id="SvgjsText1336" font-family="" text-anchor="start" font-size="12px" width="274px" fill="#000000" font-weight="400" align="middle" lineHeight="125%" anchor="start" family="" size="12px" weight="400" font-style="" opacity="1" y="19" transform="rotate(0)"><tspan id="SvgjsTspan1337" dy="15" x="10"><tspan id="SvgjsTspan1338" style="nullfont-size:12px; font-family:0; fill:#000000; letter-spacing:0px;">Mybatis Plus</tspan></tspan></text></g></g><g id="SvgjsG1339" transform="translate(568.9999847412109,682.9999923706055)"><path id="SvgjsPath1340" d="M 0 0L 119 0L 119 31L 0 31L 0 0" stroke="rgba(0,0,0,1)" stroke-width="1" fill-opacity="1" fill="#ffffff"></path><g id="SvgjsG1341"><text id="SvgjsText1342" font-family="" text-anchor="middle" font-size="12px" width="99px" fill="#000000" font-weight="400" align="middle" lineHeight="125%" anchor="middle" family="" size="12px" weight="400" font-style="" opacity="1" y="5.5" transform="rotate(0)"><tspan id="SvgjsTspan1343" dy="15" x="59.5"><tspan id="SvgjsTspan1344" style="nullfont-size:12px; font-family:0; fill:#000000; letter-spacing:0px;">在线接口说明</tspan></tspan></text></g></g><g id="SvgjsG1345" transform="translate(650.9999847412109,612.9999923706055)"><path id="SvgjsPath1346" d="M 0 0L 79 0L 79 31L 0 31L 0 0" stroke="rgba(0,0,0,1)" stroke-width="1" fill-opacity="1" fill="#ffffff"></path><g id="SvgjsG1347"><text id="SvgjsText1348" font-family="" text-anchor="middle" font-size="12px" width="60px" fill="#000000" font-weight="400" align="middle" lineHeight="125%" anchor="middle" family="" size="12px" weight="400" font-style="" opacity="1" y="5.5" transform="rotate(0)"><tspan id="SvgjsTspan1349" dy="15" x="40"><tspan id="SvgjsTspan1350" style="nullfont-size:12px; font-family:0; fill:#000000; letter-spacing:0px;">分库分表</tspan></tspan></text></g></g><g id="SvgjsG1351" transform="translate(39.99998474121094,866.9999923706055)"><path id="SvgjsPath1352" d="M 0 NaNL 691 NaN" stroke-dasharray="10,6" stroke="rgba(136,136,136,1)" stroke-width="1" fill="none"></path><g id="SvgjsG1353"><text id="SvgjsText1354" font-family="Calibri" text-anchor="middle" font-size="17px" width="671px" fill="#000000" font-weight="400" align="middle" lineHeight="125%" anchor="middle" family="Calibri" size="17px" weight="400" font-style="" opacity="1" y="-4.125" transform="rotate(0)"></text></g></g><g id="SvgjsG1355" transform="translate(39.99998474121094,866.9999923706055)"><path id="SvgjsPath1356" d="M 0 0L 691 0L 691 21L 0 21L 0 0" stroke="none" fill="none"></path><g id="SvgjsG1357"><text id="SvgjsText1358" font-family="Calibri" text-anchor="middle" font-size="17px" width="671px" fill="#000000" font-weight="400" align="middle" lineHeight="125%" anchor="middle" family="Calibri" size="17px" weight="400" font-style="" opacity="1" y="-4.125" transform="rotate(0)"></text></g></g><g id="SvgjsG1359" transform="translate(135.99998474121094,753.9999923706055)"><path id="SvgjsPath1360" d="M 0 4.0600000000000005Q 0 0 2.94 0L 291.06 0Q 294 0 294 4.0600000000000005L 294 53.940000000000005Q 294 58 291.06 58L 2.94 58Q 0 58 0 53.940000000000005L 0 4.0600000000000005" stroke="none" fill-opacity="1" fill="#ffcc99"></path><g id="SvgjsG1361"><text id="SvgjsText1362" font-family="" text-anchor="start" font-size="12px" width="274px" fill="#000000" font-weight="400" align="middle" lineHeight="125%" anchor="start" family="" size="12px" weight="400" font-style="" opacity="1" y="19" transform="rotate(0)"><tspan id="SvgjsTspan1363" dy="15" x="10"><tspan id="SvgjsTspan1364" style="nullfont-size:12px; font-family:0; fill:#000000; letter-spacing:0px;">XXL-JOB</tspan></tspan></text></g></g><g id="SvgjsG1365" transform="translate(222.99998474121094,767.9999923706055)"><path id="SvgjsPath1366" d="M 0 0L 119 0L 119 31L 0 31L 0 0" stroke="rgba(0,0,0,1)" stroke-width="1" fill-opacity="1" fill="#ffffff"></path><g id="SvgjsG1367"><text id="SvgjsText1368" font-family="" text-anchor="middle" font-size="12px" width="99px" fill="#000000" font-weight="400" align="middle" lineHeight="125%" anchor="middle" family="" size="12px" weight="400" font-style="" opacity="1" y="5.5" transform="rotate(0)"><tspan id="SvgjsTspan1369" dy="15" x="59.5"><tspan id="SvgjsTspan1370" style="nullfont-size:12px; font-family:0; fill:#000000; letter-spacing:0px;">任务调度</tspan></tspan></text></g></g><g id="SvgjsG1371" transform="translate(449.99998474121094,753.9999923706055)"><path id="SvgjsPath1372" d="M 0 4.0600000000000005Q 0 0 2.94 0L 291.06 0Q 294 0 294 4.0600000000000005L 294 53.940000000000005Q 294 58 291.06 58L 2.94 58Q 0 58 0 53.940000000000005L 0 4.0600000000000005" stroke="none" fill-opacity="1" fill="#ffcc99"></path><g id="SvgjsG1373"><text id="SvgjsText1374" font-family="" text-anchor="start" font-size="12px" width="274px" fill="#000000" font-weight="400" align="middle" lineHeight="125%" anchor="start" family="" size="12px" weight="400" font-style="" opacity="1" y="19" transform="rotate(0)"><tspan id="SvgjsTspan1375" dy="15" x="10"><tspan id="SvgjsTspan1376" style="nullfont-size:12px; font-family:0; fill:#000000; letter-spacing:0px;">logback</tspan></tspan></text></g></g><g id="SvgjsG1377" transform="translate(568.9999847412109,767.9999923706055)"><path id="SvgjsPath1378" d="M 0 0L 119 0L 119 31L 0 31L 0 0" stroke="rgba(0,0,0,1)" stroke-width="1" fill-opacity="1" fill="#ffffff"></path><g id="SvgjsG1379"><text id="SvgjsText1380" font-family="" text-anchor="middle" font-size="12px" width="99px" fill="#000000" font-weight="400" align="middle" lineHeight="125%" anchor="middle" family="" size="12px" weight="400" font-style="" opacity="1" y="5.5" transform="rotate(0)"><tspan id="SvgjsTspan1381" dy="15" x="59.5"><tspan id="SvgjsTspan1382" style="nullfont-size:12px; font-family:0; fill:#000000; letter-spacing:0px;">日志打印</tspan></tspan></text></g></g><g id="SvgjsG1383"><path id="SvgjsPath1384" d="M418.99998474121094 1024.9999923706055L418.99998474121094 1036.9999923706055L418.99998474121094 1049.6999923706055" stroke="#9999ff" stroke-width="1" fill="none" marker-end="url(#SvgjsMarker1385)"></path></g><g id="SvgjsG1387" transform="translate(496.99998474121094,220.49999237060547)"><path id="SvgjsPath1388" d="M 0 0L 105.71427917480469 0L 105.71427917480469 31L 0 31L 0 0" stroke="rgba(0,0,0,1)" stroke-width="1" fill-opacity="1" fill="#ffffff"></path><g id="SvgjsG1389"><text id="SvgjsText1390" font-family="" text-anchor="middle" font-size="12px" width="84px" fill="#000000" font-weight="400" align="middle" lineHeight="125%" anchor="middle" family="" size="12px" weight="400" font-style="" opacity="1" y="5.5" transform="rotate(0)"><tspan id="SvgjsTspan1391" dy="15" x="52"><tspan id="SvgjsTspan1392" style="null">生产/灰度切换</tspan></tspan></text></g></g></svg>